<?xml version="1.0" encoding="UTF-8"?>
<svg id="Publicdomainvectors.org" xmlns="http://www.w3.org/2000/svg" viewBox="0 0 124.6 477.76">
  <defs>
    <style>
      .cls-1 {
        fill: #482c16;
      }

      .cls-1, .cls-2, .cls-3, .cls-4, .cls-5 {
        fill-rule: evenodd;
      }

      .cls-2 {
        fill: #6f4013;
      }

      .cls-3 {
        fill: #cce0f5;
      }

      .cls-4 {
        fill: #9fbee1;
      }

      .cls-5 {
        fill: #e4ecf5;
      }
    </style>
  </defs>
  <path class="cls-3" d="m114.19,177.57c-5.14,8.96-5.14,19.19,0,28.15,7.04,12.26,10.41,25.33,10.41,40.1v196.81c0,20.91-25.32,30.68-39.56,16.12-4.44,25.35-41.04,25.35-45.47,0-14.25,14.56-39.57,4.79-39.57-16.12v-196.81c0-14.77,3.38-27.84,10.41-40.1,5.15-8.96,5.15-19.19,0-28.15-7.03-12.25-10.41-25.33-10.41-40.09v-17.96c0-17.1,7.29-31.81,20.89-42.18,3.29-2.51,6.58-5.02,9.88-7.53,6.27-4.79,9.64-11.58,9.64-19.47v-25.55h43.79v25.55c0,7.89,3.36,14.68,9.64,19.47,3.29,2.51,6.59,5.02,9.88,7.53,13.6,10.37,20.88,25.08,20.88,42.18v17.96c0,14.76-3.37,27.84-10.41,40.09Z"/>
  <path class="cls-4" d="m40.41,41.89v-17.1h19.15c7.04,1.09,14.08,2.18,21.12,3.27-2.41,9.63-4.82,19.27-7.24,28.9-.42-19.4-33.03-19.4-33.03-15.07Z"/>
  <path class="cls-4" d="m124.6,119.52v17.96c0,14.76-3.37,27.84-10.41,40.09-5.14,8.96-5.14,19.19,0,28.15,7.04,12.26,10.41,25.33,10.41,40.1v196.81c0,19.49-21.99,29.3-36.51,18.75,2.76-3.97,4.7-10.49,4.7-18.75v-196.81c0-14.77-1.66-27.84-5.1-40.1-2.52-8.96-2.52-19.19,0-28.15,3.44-12.25,5.1-25.33,5.1-40.09v-17.96c0-17.1-3.57-31.81-10.22-42.18-1.61-2.51-3.22-5.02-4.84-7.53-3.07-4.79-4.71-11.58-4.71-19.47v-25.55h11.18v25.55c0,7.89,3.36,14.68,9.64,19.47,3.29,2.51,6.59,5.02,9.88,7.53,13.6,10.37,20.88,25.08,20.88,42.18Z"/>
  <path class="cls-5" d="m11.02,242.92c8.33,3.79,18.6,6.16,31.82,6.37v28.15c-13.22-.2-23.49-2.57-31.82-6.37v-28.15h0Zm31.82,58.02v92.77c-12.32.04-23.25-1.68-31.82-6.37v-92.77c8.57,4.69,19.5,6.41,31.82,6.37Z"/>
  <path class="cls-1" d="m87.4,31.79c0,3.16-11.24,5.72-25.1,5.72s-25.1-2.56-25.1-5.72V5.72h50.2v26.07Z"/>
  <path class="cls-2" d="m62.3,0c13.86,0,25.1,2.56,25.1,5.72s-11.24,5.72-25.1,5.72-25.1-2.56-25.1-5.72S48.44,0,62.3,0Z"/>
</svg>