<?xml version="1.0" encoding="UTF-8"?>
<svg id="Publicdomainvectors.org" xmlns="http://www.w3.org/2000/svg" viewBox="0 0 655.93 1325.7">
  <defs>
    <style>
      .cls-1 {
        fill: #e4ecf5;
      }

      .cls-2 {
        fill: #c6cfe0;
      }

      .cls-3 {
        fill: #6f4013;
      }

      .cls-4 {
        fill: #482c16;
      }

      .cls-5 {
        fill: #cce0f5;
      }

      .cls-5, .cls-6 {
        opacity: .62;
      }

      .cls-6 {
        fill: #9fbee1;
      }
    </style>
  </defs>
  <rect id="boisson" class="cls-3" x="52.69" y="584.47" width="550.56" height="427.4"/>
  <g>
    <path class="cls-2" d="m0,0v1325.7h655.93V0H0Zm390.06,540.15c0,14.76-3.37,27.84-10.41,40.09-5.14,8.96-5.14,19.19,0,28.15,7.04,12.26,10.41,25.33,10.41,40.1v196.81c0,.63-.03,1.25-.07,1.87-.01.2-.04.4-.06.6-.04.41-.08.81-.14,1.21-.03.23-.08.45-.12.68-.06.35-.13.71-.21,1.06-.05.24-.12.47-.18.7-.09.33-.17.65-.27.97-.07.23-.15.46-.23.69-.11.31-.22.62-.34.92-.09.22-.18.44-.28.66-.13.29-.26.59-.4.87-.1.21-.21.42-.32.63-.15.28-.3.56-.46.83-.12.2-.24.4-.36.59-.17.27-.34.53-.52.79-.13.19-.26.37-.39.55-.19.26-.39.51-.59.76-.14.17-.27.34-.41.51-.21.25-.43.49-.66.73-.14.15-.28.31-.43.45-.24.24-.49.48-.74.71-.14.13-.28.26-.42.39-.28.24-.56.47-.85.7-.13.1-.25.21-.38.31-.35.27-.71.52-1.07.77-.08.05-.15.11-.22.16-.45.3-.91.58-1.37.85-.02,0-.04.02-.05.03-.44.25-.89.49-1.35.71-.15.07-.3.13-.44.2-.33.15-.66.3-1,.44-.19.08-.39.14-.58.22-.3.11-.6.22-.9.32-.22.07-.43.13-.65.2-.29.09-.57.17-.86.25-.23.06-.47.11-.7.17-.28.06-.55.12-.83.18-.25.05-.5.09-.75.13-.27.04-.54.08-.81.11-.26.03-.52.06-.79.08-.26.02-.52.04-.78.05-.27.01-.55.02-.82.03-.25,0-.5,0-.75,0-.29,0-.57-.01-.86-.03-.24-.01-.47-.03-.71-.05-.3-.02-.59-.05-.89-.09-.22-.03-.44-.06-.66-.1-.31-.05-.62-.09-.93-.16-.2-.04-.39-.09-.59-.13-.33-.07-.67-.15-1-.24-.15-.04-.3-.09-.45-.14-.37-.11-.74-.22-1.11-.35-.03-.01-.06-.02-.09-.03-1.88-.67-3.71-1.62-5.43-2.84-.07-.05-.15-.1-.23-.15,0,0,0,0,0,0-1.06-.77-2.08-1.64-3.05-2.63-4.44,25.35-41.04,25.35-45.47,0-14.25,14.56-39.57,4.79-39.57-16.12v-196.81c0-14.77,3.38-27.84,10.41-40.1,5.15-8.96,5.15-19.19,0-28.15-7.03-12.25-10.41-25.33-10.41-40.09v-17.96c0-17.1,7.29-31.81,20.89-42.18,3.29-2.51,6.58-5.02,9.88-7.53,6.27-4.79,9.64-11.58,9.64-19.47v-8.47s0,.01,0,.02v-7.3c-2.04-.83-3.2-1.78-3.2-2.79v-26.07c0-3.16,11.24-5.72,25.1-5.72s25.1,2.56,25.1,5.72v26.07c0,1.02-1.17,1.97-3.2,2.8v15.75c0,7.89,3.36,14.68,9.64,19.47,3.29,2.51,6.59,5.02,9.88,7.53,13.6,10.37,20.88,25.08,20.88,42.18v17.96Z"/>
    <path class="cls-5" d="m358.25,648.49c0-14.77-1.66-27.84-5.1-40.1-2.52-8.96-2.52-19.19,0-28.15,3.44-12.25,5.1-25.33,5.1-40.09v-17.96c0-17.1-3.57-31.81-10.22-42.18-1.61-2.51-3.22-5.02-4.84-7.53-2.18-3.4-3.62-7.81-4.28-12.9,0,.02,0,.03-.01.05,0-.1-.02-.2-.02-.3-.08-.63-.14-1.26-.19-1.91-2.76-17.14-32.72-17.02-32.81-12.88v8.47c0,7.89-3.37,14.68-9.64,19.47-3.3,2.51-6.59,5.02-9.88,7.53-13.6,10.37-20.89,25.08-20.89,42.18v17.96c0,14.76,3.38,27.84,10.41,40.09,5.15,8.96,5.15,19.19,0,28.15-7.03,12.26-10.41,25.33-10.41,40.1v196.81c0,20.91,25.32,30.68,39.57,16.12,4.43,25.35,41.03,25.35,45.47,0,.97.99,1.99,1.86,3.05,2.63,2.76-3.97,4.7-10.49,4.7-18.75v-196.81Zm-49.94,147.9c-12.32.04-23.25-1.68-31.82-6.37v-92.77c8.57,4.69,19.5,6.41,31.82,6.37v92.77Zm0-116.27c-13.22-.2-23.49-2.57-31.82-6.37v-28.15c8.33,3.79,18.6,6.17,31.82,6.37v28.15Z"/>
    <g id="reflets">
      <path class="cls-1" d="m276.49,790.02c8.57,4.69,19.5,6.41,31.82,6.37v-92.77c-12.32.04-23.25-1.68-31.82-6.37v92.77Z"/>
      <path class="cls-1" d="m276.49,673.74c8.33,3.79,18.6,6.16,31.82,6.37v-28.15c-13.22-.2-23.49-2.57-31.82-6.37v28.15Z"/>
    </g>
    <path class="cls-6" d="m390.06,540.15v-17.96c0-17.1-7.28-31.81-20.88-42.18-3.29-2.51-6.59-5.02-9.88-7.53-6.28-4.79-9.64-11.58-9.64-19.47v-15.75c-1.44.59-3.33,1.11-5.55,1.54-1.7.33-3.59.61-5.63.83-3.25.35-6.88.55-10.72.55-9.4,0-17.59-1.18-21.89-2.92,0,0,0,0,0,0v7.3s0-.01,0-.02c.09-4.14,30.05-4.27,32.81,12.88.05.65.11,1.28.19,1.91,0,.1.02.2.02.3,0-.02,0-.03.01-.05.66,5.09,2.11,9.5,4.28,12.9,1.62,2.51,3.23,5.02,4.84,7.53,6.65,10.37,10.22,25.08,10.22,42.18v17.96c0,14.76-1.66,27.84-5.1,40.09-2.52,8.96-2.52,19.19,0,28.15,3.44,12.26,5.1,25.33,5.1,40.1v196.81c0,8.26-1.94,14.78-4.7,18.75,0,0,0,0,0,0,.07.05.15.1.23.15.7.5,1.42.93,2.15,1.34,1.07.59,2.17,1.1,3.28,1.5.03.01.06.02.09.03.37.13.74.24,1.11.35.15.04.3.1.45.14.33.09.66.16,1,.24.2.04.39.09.59.13.31.06.62.11.93.16.22.03.44.07.66.1.3.04.59.06.89.09.24.02.47.04.71.05.29.01.57.02.86.03.25,0,.5,0,.75,0,.27,0,.55-.02.82-.03.26-.01.52-.03.78-.05.26-.02.52-.05.79-.08.27-.03.54-.07.81-.11.25-.04.5-.08.75-.13.28-.05.56-.11.83-.18.24-.05.47-.11.7-.17.29-.07.58-.16.86-.25.22-.06.44-.13.65-.2.3-.1.6-.21.9-.33.19-.07.39-.14.58-.22.34-.14.67-.29,1-.44.15-.07.3-.13.44-.2.46-.22.91-.46,1.35-.71.02,0,.04-.02.05-.03.47-.27.92-.55,1.37-.85.08-.05.15-.11.22-.16.36-.25.72-.5,1.07-.77.13-.1.25-.21.38-.31.29-.23.57-.46.85-.7.14-.13.28-.26.42-.39.25-.23.5-.46.74-.71.15-.15.28-.3.43-.45.22-.24.44-.48.66-.73.14-.17.28-.34.41-.51.2-.25.4-.5.59-.76.13-.18.26-.37.39-.55.18-.26.35-.52.52-.79.12-.19.24-.39.36-.59.16-.27.31-.55.46-.83.11-.21.22-.42.32-.63.14-.29.27-.58.4-.87.1-.22.19-.44.28-.66.12-.3.23-.61.34-.92.08-.23.16-.45.23-.69.1-.32.19-.65.27-.97.06-.23.13-.46.18-.7.08-.35.14-.7.21-1.06.04-.23.09-.45.12-.68.06-.4.1-.8.14-1.21.02-.2.05-.4.06-.6.05-.61.07-1.23.07-1.87v-196.81c0-14.77-3.37-27.84-10.41-40.1-5.14-8.96-5.14-19.19,0-28.15,7.04-12.25,10.41-25.33,10.41-40.09Z"/>
    <path class="cls-4" d="m327.77,414.11c-13.86,0-25.1-2.56-25.1-5.72v26.07c0,1.02,1.17,1.97,3.2,2.79,0,0,0,0,0,0,4.3,1.74,12.49,2.92,21.89,2.92,3.83,0,7.47-.2,10.72-.55,2.04-.22,3.93-.5,5.63-.83,2.22-.44,4.11-.96,5.55-1.54,2.04-.83,3.2-1.78,3.2-2.8v-26.07c0,3.16-11.24,5.72-25.1,5.72Z"/>
    <path class="cls-3" d="m327.77,402.67c-13.86,0-25.1,2.56-25.1,5.72s11.24,5.72,25.1,5.72,25.1-2.56,25.1-5.72-11.24-5.72-25.1-5.72Z"/>
  </g>
</svg>