<?xml version="1.0" encoding="UTF-8"?>
<svg id="Publicdomainvectors.org" xmlns="http://www.w3.org/2000/svg" viewBox="0 0 124.6 477.75">
  <defs>
    <style>
      .cls-1 {
        fill: #482c16;
      }

      .cls-1, .cls-2, .cls-3, .cls-4, .cls-5, .cls-6 {
        fill-rule: evenodd;
      }

      .cls-2 {
        fill: #6f4013;
      }

      .cls-3 {
        fill: #cce0f5;
      }

      .cls-4 {
        fill: #312215;
      }

      .cls-5 {
        fill: #9fbee1;
      }

      .cls-6 {
        fill: #b9a38e;
      }
    </style>
  </defs>
  <path class="cls-1" d="m124.6,123.46v14.01c0,14.77-3.38,27.84-10.41,40.09-5.15,8.96-5.15,19.2,0,28.16,7.04,12.25,10.41,25.32,10.41,40.09v196.82c0,20.91-25.32,30.68-39.56,16.12-4.44,25.35-41.04,25.35-45.47,0-14.24,14.57-39.57,4.79-39.57-16.12v-196.82c0-14.77,3.38-27.84,10.41-40.09,5.15-8.96,5.15-19.2,0-28.16-7.03-12.25-10.41-25.32-10.41-40.09v-14.01h124.6Z"/>
  <path class="cls-3" d="m20.88,77.33c3.29-2.51,6.59-5.02,9.88-7.53,6.28-4.79,9.64-11.58,9.64-19.47v-25.54h43.8v25.54c0,7.89,3.36,14.69,9.64,19.47,3.29,2.51,6.58,5.02,9.88,7.53,13.6,10.37,20.88,25.08,20.88,42.18v3.95H0v-3.95c0-17.1,7.29-31.81,20.88-42.18Z"/>
  <path class="cls-5" d="m40.4,41.89v-17.1h19.15c7.04,1.09,14.08,2.18,21.12,3.27-2.41,9.63-4.82,19.27-7.24,28.9-.42-19.4-33.03-19.4-33.03-15.07Z"/>
  <path class="cls-5" d="m73.01,24.79h11.18v25.54c0,7.89,3.36,14.69,9.64,19.47,3.29,2.51,6.58,5.02,9.88,7.53,13.6,10.37,20.88,25.08,20.88,42.18v3.95h-31.82v-3.95c0-17.1-3.57-31.81-10.22-42.18-1.61-2.51-3.22-5.02-4.83-7.53-3.07-4.79-4.72-11.58-4.72-19.47v-25.54Z"/>
  <path class="cls-4" d="m124.6,123.46v14.01c0,14.77-3.38,27.84-10.41,40.09-5.15,8.96-5.15,19.2,0,28.16,7.04,12.25,10.41,25.32,10.41,40.09v196.82c0,19.49-22,29.3-36.52,18.75,2.77-3.97,4.7-10.49,4.7-18.75v-196.82c0-14.77-1.65-27.84-5.1-40.09-2.52-8.96-2.52-19.2,0-28.16,3.44-12.25,5.1-25.32,5.1-40.09v-14.01h31.82Zm-41.76,342.04c-4.04,8.09-12.15,12.17-20.3,12.25,4.94-.2,9.82-6.53,10.89-19.01,2.68,5.59,6.15,7.6,9.42,6.76Z"/>
  <path class="cls-2" d="m62.3,109.27c34.41,0,62.3,6.36,62.3,14.2s-27.89,14.2-62.3,14.2S0,131.31,0,123.46s27.89-14.2,62.3-14.2Z"/>
  <path class="cls-1" d="m92.48,111.04c19.16,2.42,32.13,7.08,32.13,12.42s-12.83,9.95-31.82,12.38v-16.33c0-2.9-.1-5.72-.31-8.48Z"/>
  <path class="cls-6" d="m11.02,242.92c8.33,3.79,18.6,6.16,31.82,6.37v28.15c-13.22-.2-23.49-2.57-31.82-6.37v-28.15h0Zm31.82,58.02v92.77c-12.32.04-23.25-1.68-31.82-6.37v-92.77c8.57,4.69,19.5,6.41,31.82,6.37Z"/>
  <path class="cls-1" d="m87.4,31.79c0,3.16-11.24,5.72-25.1,5.72s-25.1-2.56-25.1-5.72V5.72h50.2v26.07Z"/>
  <path class="cls-2" d="m62.3,0c13.86,0,25.1,2.56,25.1,5.72s-11.24,5.72-25.1,5.72-25.1-2.56-25.1-5.72S48.44,0,62.3,0Z"/>
</svg>